<mxfile host="app.diagrams.net" modified="2024-07-22T13:53:16.072Z" agent="Mozilla/5.0 (Windows NT 10.0; Win64; x64) AppleWebKit/537.36 (KHTML, like Gecko) Chrome/123.0.0.0 Safari/537.36 OPR/109.0.0.0" version="24.7.1" etag="rfG5p8ASjWQj3DGYIU1e" type="github">
  <diagram name="PÃ¡gina-1" id="X7YQEaWZPTZWBMBbgl05">
    <mxGraphModel>
      <root>
        <mxCell id="0" />
        <mxCell id="1" parent="0" />
      </root>
    </mxGraphModel>
  </diagram>
</mxfile>
